Coordinates
version=1
nRows=10
nColumns=27
inDegrees=yes

Units are S.I. units (second, meters, Newtons, ...)
If the header above contains a line with 'inDegrees', this indicates whether rotational values are in degrees (yes) or radians (no).

endheader
time	pelvis_rotation	pelvis_tilt	pelvis_list	pelvis_tx	pelvis_ty	pelvis_tz	hip_flexion_r	hip_adduction_r	hip_rotation_r	knee_angle_r	knee_rotation_r	knee_adduction_r	knee_angle_r_beta	ankle_angle_r	subtalar_angle_r	mtp_angle_r	hip_flexion_l	hip_adduction_l	hip_rotation_l	knee_angle_l	knee_rotation_l	knee_adduction_l	knee_angle_l_beta	ankle_angle_l	subtalar_angle_l	mtp_angle_l
      5.24500000	     15.63480254	    -36.66331488	      5.47962181	     -0.05962968	      0.66115953	     -1.18917375	     93.61303254	    -48.39909555	     -5.42042629	     74.87852257	      0.00000000	      9.04273054	      1.30687676	      7.62716950	      0.00000000	      0.00000000	     97.79695370	    -18.53932258	      1.24679557	     68.41904523	      0.00000000	     -9.84935030	      1.19413761	      2.36215200	      0.00000000	      0.00000000
      5.25000000	     15.63281834	    -36.64391039	      5.46172726	     -0.05923055	      0.66147405	     -1.18915401	     93.47256063	    -48.39909097	     -5.51595606	     74.83084369	      0.00000000	      9.04949936	      1.30604460	      7.63248370	      0.00000000	      0.00000000	     97.72130398	    -18.55426779	      1.23863464	     68.37868295	      0.00000000	     -9.84968999	      1.19343316	      2.36679095	      0.00000000	      0.00000000
      5.25500000	     15.63737909	    -36.62205066	      5.46832987	     -0.05886674	      0.66176744	     -1.18913979	     93.37170013	    -48.40489303	     -5.56664940	     74.79047959	      0.00000000	      9.05367134	      1.30534012	      7.64165229	      0.00000000	      0.00000000	     97.63591877	    -18.56566281	      1.20600342	     68.33637158	      0.00000000	     -9.84997173	      1.19269468	      2.37905212	      0.00000000	      0.00000000
      5.26000000	     15.64147757	    -36.59790674	      5.45775932	     -0.05850808	      0.66206885	     -1.18910278	     93.24157453	    -48.40946859	     -5.65103053	     74.74913153	      0.00000000	      9.05830783	      1.30461846	      7.64722694	      0.00000000	      0.00000000	     97.55543479	    -18.57855466	      1.19136939	     68.29096394	      0.00000000	     -9.85035056	      1.19190217	      2.37500297	      0.00000000	      0.00000000
      5.26500000	     15.65000434	    -36.56025239	      5.48419210	     -0.05817277	      0.66238989	     -1.18910690	     93.14426635	    -48.41847566	     -5.67528822	     74.70178127	      0.00000000	      9.06376007	      1.30379204	      7.64877070	      0.00000000	      0.00000000	     97.44059144	    -18.58612635	      1.13406556	     68.23671398	      0.00000000	     -9.85061610	      1.19095533	      2.38159840	      0.00000000	      0.00000000
      5.27000000	     15.66026469	    -36.53541148	      5.47895363	     -0.05784568	      0.66270066	     -1.18907287	     93.01532433	    -48.42351986	     -5.75296271	     74.65531417	      0.00000000	      9.06775017	      1.30298104	      7.65647400	      0.00000000	      0.00000000	     97.35745621	    -18.59096099	      1.11654838	     68.18164565	      0.00000000	     -9.85115078	      1.18999421	      2.37076134	      0.00000000	      0.00000000
      5.27500000	     15.66431653	    -36.50760287	      5.49387124	     -0.05752291	      0.66301053	     -1.18907129	     92.91577661	    -48.43076296	     -5.80119802	     74.60984868	      0.00000000	      9.07792469	      1.30218751	      7.64170985	      0.00000000	      0.00000000	     97.25980525	    -18.60546179	      1.06958604	     68.13606028	      0.00000000	     -9.85154092	      1.18919859	      2.38248778	      0.00000000	      0.00000000
      5.28000000	     15.66779266	    -36.46133062	      5.48817145	     -0.05719316	      0.66333358	     -1.18905638	     92.76362176	    -48.43982411	     -5.88790919	     74.55677813	      0.00000000	      9.08230291	      1.30126126	      7.65679429	      0.00000000	      0.00000000	     97.15361088	    -18.61910857	      1.03831418	     68.08437375	      0.00000000	     -9.85164802	      1.18829649	      2.37275085	      0.00000000	      0.00000000
      5.28500000	     14.85380420	    -36.56647921	      5.60889904	     -0.05753127	      0.66354978	     -1.18862990	     93.57913242	    -47.41449181	     -4.65335468	     74.54060298	      0.00000000	      8.54798830	      1.30097895	      7.52236919	      0.00000000	      0.00000000	     96.93407830	    -19.45716443	      0.40865725	     68.01433775	      0.00000000	     -9.72589915	      1.18707413	      2.32008474	      0.00000000	      0.00000000
      5.29000000	     15.69219184	    -36.41080526	      5.51410965	     -0.05658450	      0.66392524	     -1.18905149	     92.56204439	    -48.47108230	     -6.00053728	     74.46728484	      0.00000000	      9.10302778	      1.29969931	      7.65488640	      0.00000000	      0.00000000	     96.97858276	    -18.62871997	      0.95951724	     67.98443871	      0.00000000	     -9.85238433	      1.18655230	      2.36757182	      0.00000000	      0.00000000
